<mxfile host="app.diagrams.net" agent="Mozilla/5.0 (Macintosh; Intel Mac OS X 10_15_7) AppleWebKit/537.36 (KHTML, like Gecko) Chrome/139.0.0.0 Safari/537.36" version="28.1.2">
  <diagram id="OevAeBpWaqlTcPd7zHQs" name="3.2 Схемы интеграции приложений *done*">
    <mxGraphModel dx="2660" dy="2152" grid="1" gridSize="10" guides="1" tooltips="1" connect="1" arrows="1" fold="1" page="1" pageScale="1" pageWidth="827" pageHeight="1169" math="0" shadow="0">
      <root>
        <mxCell id="0" />
        <mxCell id="1" parent="0" />
        <mxCell id="vZPYhqz5uQ9WQLGZUq8a-83" style="edgeStyle=orthogonalEdgeStyle;rounded=0;orthogonalLoop=1;jettySize=auto;html=1;exitX=1;exitY=0.5;exitDx=0;exitDy=0;entryX=0;entryY=0.5;entryDx=0;entryDy=0;" parent="1" source="vZPYhqz5uQ9WQLGZUq8a-62" target="vZPYhqz5uQ9WQLGZUq8a-77" edge="1">
          <mxGeometry relative="1" as="geometry" />
        </mxCell>
        <mxCell id="vZPYhqz5uQ9WQLGZUq8a-95" style="edgeStyle=orthogonalEdgeStyle;rounded=0;orthogonalLoop=1;jettySize=auto;html=1;exitX=1;exitY=0.75;exitDx=0;exitDy=0;entryX=0.5;entryY=0;entryDx=0;entryDy=0;" parent="1" source="vZPYhqz5uQ9WQLGZUq8a-62" target="vZPYhqz5uQ9WQLGZUq8a-65" edge="1">
          <mxGeometry relative="1" as="geometry" />
        </mxCell>
        <mxCell id="vZPYhqz5uQ9WQLGZUq8a-96" style="edgeStyle=orthogonalEdgeStyle;rounded=0;orthogonalLoop=1;jettySize=auto;html=1;exitX=0.5;exitY=1;exitDx=0;exitDy=0;entryX=0.5;entryY=0;entryDx=0;entryDy=0;" parent="1" source="vZPYhqz5uQ9WQLGZUq8a-62" target="vZPYhqz5uQ9WQLGZUq8a-64" edge="1">
          <mxGeometry relative="1" as="geometry" />
        </mxCell>
        <mxCell id="vZPYhqz5uQ9WQLGZUq8a-121" style="edgeStyle=orthogonalEdgeStyle;rounded=0;orthogonalLoop=1;jettySize=auto;html=1;entryX=0;entryY=0.5;entryDx=0;entryDy=0;exitX=0.981;exitY=0.233;exitDx=0;exitDy=0;exitPerimeter=0;" parent="1" source="vZPYhqz5uQ9WQLGZUq8a-62" target="vZPYhqz5uQ9WQLGZUq8a-120" edge="1">
          <mxGeometry relative="1" as="geometry">
            <mxPoint x="-630" y="-30" as="sourcePoint" />
          </mxGeometry>
        </mxCell>
        <mxCell id="vZPYhqz5uQ9WQLGZUq8a-127" value="Обращается в отделение лично" style="edgeLabel;html=1;align=center;verticalAlign=middle;resizable=0;points=[];" parent="vZPYhqz5uQ9WQLGZUq8a-121" vertex="1" connectable="0">
          <mxGeometry x="-0.0863" y="-1" relative="1" as="geometry">
            <mxPoint x="1" as="offset" />
          </mxGeometry>
        </mxCell>
        <mxCell id="vZPYhqz5uQ9WQLGZUq8a-62" value="Клиент" style="whiteSpace=wrap;align=center;verticalAlign=middle;fontStyle=1;strokeWidth=3;fillColor=#FFFFCC" parent="1" vertex="1">
          <mxGeometry x="-725" y="-110" width="90" height="342" as="geometry" />
        </mxCell>
        <mxCell id="vZPYhqz5uQ9WQLGZUq8a-64" value="Сайт" style="shape=process;whiteSpace=wrap;align=center;verticalAlign=middle;size=0.0475;fontStyle=1;strokeWidth=3;fillColor=#FFCCCC" parent="1" vertex="1">
          <mxGeometry x="-740" y="540" width="120" height="51" as="geometry" />
        </mxCell>
        <mxCell id="vZPYhqz5uQ9WQLGZUq8a-65" value="Интернет-Банк" style="shape=process;whiteSpace=wrap;align=center;verticalAlign=middle;size=0.0475;fontStyle=1;strokeWidth=3;fillColor=#f0a30a;fontColor=#000000;strokeColor=#BD7000;" parent="1" vertex="1">
          <mxGeometry x="-620" y="359" width="120" height="51" as="geometry" />
        </mxCell>
        <mxCell id="vZPYhqz5uQ9WQLGZUq8a-72" value="Автоматизированная банковская система" style="shape=process;whiteSpace=wrap;align=center;verticalAlign=middle;size=0.0475;fontStyle=1;strokeWidth=3;fillColor=#FFCCCC" parent="1" vertex="1">
          <mxGeometry x="-544" y="580" width="1774" height="51" as="geometry" />
        </mxCell>
        <mxCell id="vZPYhqz5uQ9WQLGZUq8a-74" value="" style="edgeStyle=elbowEdgeStyle;elbow=horizontal;strokeColor=#990000;strokeWidth=2;rounded=0;exitX=0.5;exitY=1;exitDx=0;exitDy=0;entryX=0;entryY=0.5;entryDx=0;entryDy=0;dashed=1;dashPattern=12 12;" parent="1" source="vZPYhqz5uQ9WQLGZUq8a-65" target="vZPYhqz5uQ9WQLGZUq8a-72" edge="1">
          <mxGeometry width="100" height="100" relative="1" as="geometry">
            <mxPoint x="-590" y="530" as="sourcePoint" />
            <mxPoint x="-480" y="610" as="targetPoint" />
            <Array as="points">
              <mxPoint x="-565" y="500" />
            </Array>
          </mxGeometry>
        </mxCell>
        <mxCell id="vZPYhqz5uQ9WQLGZUq8a-75" value="Получение и отправка данных" style="text;spacingTop=-5;align=center;rotation=270;" parent="1" vertex="1">
          <mxGeometry x="-600" y="500.0000000000001" width="30" height="20" as="geometry" />
        </mxCell>
        <mxCell id="vZPYhqz5uQ9WQLGZUq8a-89" value="" style="edgeStyle=orthogonalEdgeStyle;rounded=0;orthogonalLoop=1;jettySize=auto;html=1;" parent="1" source="vZPYhqz5uQ9WQLGZUq8a-77" target="vZPYhqz5uQ9WQLGZUq8a-81" edge="1">
          <mxGeometry relative="1" as="geometry" />
        </mxCell>
        <mxCell id="vZPYhqz5uQ9WQLGZUq8a-107" style="edgeStyle=orthogonalEdgeStyle;rounded=0;orthogonalLoop=1;jettySize=auto;html=1;entryX=0;entryY=0.5;entryDx=0;entryDy=0;" parent="1" source="vZPYhqz5uQ9WQLGZUq8a-77" target="vZPYhqz5uQ9WQLGZUq8a-79" edge="1">
          <mxGeometry relative="1" as="geometry" />
        </mxCell>
        <mxCell id="vZPYhqz5uQ9WQLGZUq8a-108" value="Обращается" style="edgeLabel;html=1;align=center;verticalAlign=middle;resizable=0;points=[];" parent="vZPYhqz5uQ9WQLGZUq8a-107" vertex="1" connectable="0">
          <mxGeometry x="-0.024" y="3" relative="1" as="geometry">
            <mxPoint as="offset" />
          </mxGeometry>
        </mxCell>
        <mxCell id="vZPYhqz5uQ9WQLGZUq8a-77" value="Сотрудник кол-центра банка" style="whiteSpace=wrap;align=center;verticalAlign=middle;fontStyle=1;strokeWidth=3;fillColor=#FFFFCC" parent="1" vertex="1">
          <mxGeometry x="-325.75" y="31" width="90" height="60" as="geometry" />
        </mxCell>
        <mxCell id="vZPYhqz5uQ9WQLGZUq8a-101" style="edgeStyle=orthogonalEdgeStyle;rounded=0;orthogonalLoop=1;jettySize=auto;html=1;exitX=0;exitY=0.5;exitDx=0;exitDy=0;entryX=1;entryY=0.5;entryDx=0;entryDy=0;" parent="1" source="vZPYhqz5uQ9WQLGZUq8a-78" target="vZPYhqz5uQ9WQLGZUq8a-79" edge="1">
          <mxGeometry relative="1" as="geometry" />
        </mxCell>
        <mxCell id="vZPYhqz5uQ9WQLGZUq8a-78" value="Бизнес представитель банка" style="whiteSpace=wrap;align=center;verticalAlign=middle;fontStyle=1;strokeWidth=3;fillColor=#FFFFCC" parent="1" vertex="1">
          <mxGeometry x="100" y="31" width="110" height="60" as="geometry" />
        </mxCell>
        <mxCell id="vZPYhqz5uQ9WQLGZUq8a-109" style="edgeStyle=orthogonalEdgeStyle;rounded=0;orthogonalLoop=1;jettySize=auto;html=1;exitX=0.5;exitY=1;exitDx=0;exitDy=0;entryX=0.5;entryY=0;entryDx=0;entryDy=0;" parent="1" source="vZPYhqz5uQ9WQLGZUq8a-79" target="vZPYhqz5uQ9WQLGZUq8a-82" edge="1">
          <mxGeometry relative="1" as="geometry" />
        </mxCell>
        <mxCell id="vZPYhqz5uQ9WQLGZUq8a-79" value="Сотрудник партнерского кол-центра" style="whiteSpace=wrap;align=center;verticalAlign=middle;fontStyle=1;strokeWidth=3;fillColor=#FFFFCC" parent="1" vertex="1">
          <mxGeometry x="-110" y="31" width="90" height="60" as="geometry" />
        </mxCell>
        <mxCell id="vZPYhqz5uQ9WQLGZUq8a-106" style="edgeStyle=orthogonalEdgeStyle;rounded=0;orthogonalLoop=1;jettySize=auto;html=1;entryX=0;entryY=0.5;entryDx=0;entryDy=0;" parent="1" source="vZPYhqz5uQ9WQLGZUq8a-80" target="vZPYhqz5uQ9WQLGZUq8a-81" edge="1">
          <mxGeometry relative="1" as="geometry" />
        </mxCell>
        <mxCell id="vZPYhqz5uQ9WQLGZUq8a-80" value="Команда подрядчика кол-центра" style="whiteSpace=wrap;align=center;verticalAlign=middle;fontStyle=1;strokeWidth=3;fillColor=#FFFFCC" parent="1" vertex="1">
          <mxGeometry x="-544" y="236.19" width="90" height="60" as="geometry" />
        </mxCell>
        <mxCell id="vZPYhqz5uQ9WQLGZUq8a-81" value="Система кол-центра" style="shape=process;whiteSpace=wrap;align=center;verticalAlign=middle;size=0.0475;fontStyle=1;strokeWidth=3;fillColor=#f0a30a;fontColor=#000000;strokeColor=#BD7000;" parent="1" vertex="1">
          <mxGeometry x="-340.75" y="240.69" width="120" height="51" as="geometry" />
        </mxCell>
        <mxCell id="vZPYhqz5uQ9WQLGZUq8a-82" value="Система партнерского кол-центра" style="shape=process;whiteSpace=wrap;align=center;verticalAlign=middle;size=0.0475;fontStyle=1;strokeWidth=3;fillColor=#76608a;fontColor=#ffffff;strokeColor=#432D57;" parent="1" vertex="1">
          <mxGeometry x="-125" y="240.69" width="120" height="51" as="geometry" />
        </mxCell>
        <mxCell id="vZPYhqz5uQ9WQLGZUq8a-90" value="Принимает звонки, регистрирует обращения" style="text;spacingTop=-5;align=center;rotation=270;whiteSpace=wrap;fontSize=11;" parent="1" vertex="1">
          <mxGeometry x="-369.62" y="147" width="133.87" height="34" as="geometry" />
        </mxCell>
        <mxCell id="vZPYhqz5uQ9WQLGZUq8a-92" value="Поддерживает, дорабатывает" style="text;spacingTop=-5;align=center;rotation=0;whiteSpace=wrap;fontSize=11;" parent="1" vertex="1">
          <mxGeometry x="-440" y="225" width="93.5" height="30" as="geometry" />
        </mxCell>
        <mxCell id="vZPYhqz5uQ9WQLGZUq8a-97" value="Просматривает маркетинговую информацию" style="text;spacingTop=-5;align=center;rotation=270;whiteSpace=wrap;fontSize=11;" parent="1" vertex="1">
          <mxGeometry x="-833.31" y="370" width="263.31" height="20" as="geometry" />
        </mxCell>
        <mxCell id="vZPYhqz5uQ9WQLGZUq8a-98" value="Проведение платежей, открытие счетов" style="text;spacingTop=-5;align=center;rotation=270;whiteSpace=wrap;fontSize=11;" parent="1" vertex="1">
          <mxGeometry x="-655" y="247.38" width="129.25" height="37.62" as="geometry" />
        </mxCell>
        <mxCell id="vZPYhqz5uQ9WQLGZUq8a-103" value="Передает скрипты для работы с клиентами" style="text;spacingTop=-5;align=center;rotation=0;whiteSpace=wrap;fontSize=11;" parent="1" vertex="1">
          <mxGeometry x="-5" y="26" width="90" height="54" as="geometry" />
        </mxCell>
        <mxCell id="vZPYhqz5uQ9WQLGZUq8a-110" value="Звонит" style="text;spacingTop=-5;align=center;rotation=0;whiteSpace=wrap;fontSize=11;" parent="1" vertex="1">
          <mxGeometry x="-525.75" y="31" width="93.5" height="24" as="geometry" />
        </mxCell>
        <mxCell id="vZPYhqz5uQ9WQLGZUq8a-114" value="" style="edgeStyle=elbowEdgeStyle;elbow=horizontal;strokeColor=#990000;strokeWidth=2;rounded=0;exitX=0.5;exitY=1;exitDx=0;exitDy=0;" parent="1" source="vZPYhqz5uQ9WQLGZUq8a-81" edge="1">
          <mxGeometry width="100" height="100" relative="1" as="geometry">
            <mxPoint x="-281.28" y="359" as="sourcePoint" />
            <mxPoint x="-281" y="581" as="targetPoint" />
            <Array as="points">
              <mxPoint x="-281.28" y="388" />
            </Array>
          </mxGeometry>
        </mxCell>
        <mxCell id="vZPYhqz5uQ9WQLGZUq8a-116" value="Передает информацию об обращении" style="text;spacingTop=-5;align=center;rotation=270;" parent="1" vertex="1">
          <mxGeometry x="-310" y="420" width="30" height="20" as="geometry" />
        </mxCell>
        <mxCell id="vZPYhqz5uQ9WQLGZUq8a-118" value="Передает информацию об обращении" style="text;spacingTop=-5;align=center;rotation=270;" parent="1" vertex="1">
          <mxGeometry x="-90" y="420" width="30" height="20" as="geometry" />
        </mxCell>
        <mxCell id="vZPYhqz5uQ9WQLGZUq8a-119" value="" style="edgeStyle=elbowEdgeStyle;elbow=horizontal;strokeColor=#990000;strokeWidth=2;rounded=0;exitX=0.5;exitY=1;exitDx=0;exitDy=0;dashed=1;dashPattern=8 8;" parent="1" source="vZPYhqz5uQ9WQLGZUq8a-82" edge="1">
          <mxGeometry width="100" height="100" relative="1" as="geometry">
            <mxPoint x="-65" y="310" as="sourcePoint" />
            <mxPoint x="-65" y="579" as="targetPoint" />
            <Array as="points">
              <mxPoint x="-64.77999999999997" y="387.69" />
            </Array>
          </mxGeometry>
        </mxCell>
        <mxCell id="vZPYhqz5uQ9WQLGZUq8a-131" style="edgeStyle=orthogonalEdgeStyle;rounded=0;orthogonalLoop=1;jettySize=auto;html=1;exitX=1;exitY=0.5;exitDx=0;exitDy=0;entryX=0;entryY=0.5;entryDx=0;entryDy=0;" parent="1" source="vZPYhqz5uQ9WQLGZUq8a-120" target="vZPYhqz5uQ9WQLGZUq8a-130" edge="1">
          <mxGeometry relative="1" as="geometry" />
        </mxCell>
        <mxCell id="vZPYhqz5uQ9WQLGZUq8a-120" value="Сотрудник отделения" style="whiteSpace=wrap;align=center;verticalAlign=middle;fontStyle=1;strokeWidth=3;fillColor=#FFFFCC" parent="1" vertex="1">
          <mxGeometry x="270" y="-60" width="110" height="60" as="geometry" />
        </mxCell>
        <mxCell id="vZPYhqz5uQ9WQLGZUq8a-125" value="Проверяет наличие обработанной ставки, загружает договора, другое" style="text;spacingTop=-5;align=center;rotation=270;" parent="1" vertex="1">
          <mxGeometry x="270" y="296" width="30" height="20" as="geometry" />
        </mxCell>
        <mxCell id="vZPYhqz5uQ9WQLGZUq8a-148" style="edgeStyle=orthogonalEdgeStyle;rounded=0;orthogonalLoop=1;jettySize=auto;html=1;entryX=1;entryY=0.5;entryDx=0;entryDy=0;dashed=1;dashPattern=8 8;exitX=0.5;exitY=1;exitDx=0;exitDy=0;" parent="1" source="vZPYhqz5uQ9WQLGZUq8a-128" target="vZPYhqz5uQ9WQLGZUq8a-146" edge="1">
          <mxGeometry relative="1" as="geometry" />
        </mxCell>
        <mxCell id="vZPYhqz5uQ9WQLGZUq8a-179" style="edgeStyle=orthogonalEdgeStyle;rounded=0;orthogonalLoop=1;jettySize=auto;html=1;exitX=1;exitY=0.5;exitDx=0;exitDy=0;entryX=0.25;entryY=0;entryDx=0;entryDy=0;" parent="1" source="vZPYhqz5uQ9WQLGZUq8a-128" target="vZPYhqz5uQ9WQLGZUq8a-140" edge="1">
          <mxGeometry relative="1" as="geometry" />
        </mxCell>
        <mxCell id="vZPYhqz5uQ9WQLGZUq8a-128" value="Сотрудник кредитных продуктов" style="whiteSpace=wrap;align=center;verticalAlign=middle;fontStyle=1;strokeWidth=3;fillColor=#FFFFCC" parent="1" vertex="1">
          <mxGeometry x="821" y="-60" width="110" height="60" as="geometry" />
        </mxCell>
        <mxCell id="vZPYhqz5uQ9WQLGZUq8a-151" style="edgeStyle=orthogonalEdgeStyle;rounded=0;orthogonalLoop=1;jettySize=auto;html=1;exitX=0;exitY=0.5;exitDx=0;exitDy=0;entryX=1;entryY=0.5;entryDx=0;entryDy=0;dashed=1;dashPattern=8 8;" parent="1" source="vZPYhqz5uQ9WQLGZUq8a-129" target="vZPYhqz5uQ9WQLGZUq8a-150" edge="1">
          <mxGeometry relative="1" as="geometry" />
        </mxCell>
        <mxCell id="vZPYhqz5uQ9WQLGZUq8a-129" value="Сотрудник депозитных продуктов" style="whiteSpace=wrap;align=center;verticalAlign=middle;fontStyle=1;strokeWidth=3;fillColor=#FFFFCC" parent="1" vertex="1">
          <mxGeometry x="545" y="121" width="110" height="59" as="geometry" />
        </mxCell>
        <mxCell id="vZPYhqz5uQ9WQLGZUq8a-154" style="edgeStyle=orthogonalEdgeStyle;rounded=0;orthogonalLoop=1;jettySize=auto;html=1;exitX=0.5;exitY=1;exitDx=0;exitDy=0;entryX=0.5;entryY=0;entryDx=0;entryDy=0;" parent="1" source="vZPYhqz5uQ9WQLGZUq8a-130" target="vZPYhqz5uQ9WQLGZUq8a-129" edge="1">
          <mxGeometry relative="1" as="geometry" />
        </mxCell>
        <mxCell id="vZPYhqz5uQ9WQLGZUq8a-157" style="edgeStyle=orthogonalEdgeStyle;rounded=0;orthogonalLoop=1;jettySize=auto;html=1;exitX=1;exitY=0.5;exitDx=0;exitDy=0;entryX=0;entryY=0.5;entryDx=0;entryDy=0;" parent="1" source="vZPYhqz5uQ9WQLGZUq8a-130" target="vZPYhqz5uQ9WQLGZUq8a-128" edge="1">
          <mxGeometry relative="1" as="geometry" />
        </mxCell>
        <mxCell id="vZPYhqz5uQ9WQLGZUq8a-130" value="Email" style="shape=process;whiteSpace=wrap;align=center;verticalAlign=middle;size=0.0475;fontStyle=1;strokeWidth=3;fillColor=#FFCCCC" parent="1" vertex="1">
          <mxGeometry x="510" y="-117.75" width="180" height="175.5" as="geometry" />
        </mxCell>
        <mxCell id="vZPYhqz5uQ9WQLGZUq8a-140" value="Кредитный конвейер" style="shape=process;whiteSpace=wrap;align=center;verticalAlign=middle;size=0.0475;fontStyle=1;strokeWidth=3;fillColor=#FFCCCC" parent="1" vertex="1">
          <mxGeometry x="930" y="225" width="210" height="51" as="geometry" />
        </mxCell>
        <mxCell id="vZPYhqz5uQ9WQLGZUq8a-141" value="Система кредитного скоринга" style="shape=process;whiteSpace=wrap;align=center;verticalAlign=middle;size=0.0475;fontStyle=1;strokeWidth=3;fillColor=#FFCCCC" parent="1" vertex="1">
          <mxGeometry x="1005" y="381.7" width="120" height="51" as="geometry" />
        </mxCell>
        <mxCell id="vZPYhqz5uQ9WQLGZUq8a-142" style="edgeStyle=orthogonalEdgeStyle;rounded=0;orthogonalLoop=1;jettySize=auto;html=1;exitX=0.25;exitY=1;exitDx=0;exitDy=0;" parent="1" source="vZPYhqz5uQ9WQLGZUq8a-120" edge="1">
          <mxGeometry relative="1" as="geometry">
            <mxPoint x="298" y="576" as="targetPoint" />
          </mxGeometry>
        </mxCell>
        <mxCell id="vZPYhqz5uQ9WQLGZUq8a-143" style="edgeStyle=orthogonalEdgeStyle;rounded=0;orthogonalLoop=1;jettySize=auto;html=1;entryX=0.645;entryY=-0.026;entryDx=0;entryDy=0;entryPerimeter=0;" parent="1" source="vZPYhqz5uQ9WQLGZUq8a-129" target="vZPYhqz5uQ9WQLGZUq8a-72" edge="1">
          <mxGeometry relative="1" as="geometry">
            <mxPoint x="600" y="570" as="targetPoint" />
          </mxGeometry>
        </mxCell>
        <mxCell id="vZPYhqz5uQ9WQLGZUq8a-145" value="Обрабатывают заявки по ставкам и указывают ее в системе" style="text;spacingTop=-5;align=center;rotation=270;" parent="1" vertex="1">
          <mxGeometry x="575" y="374.5" width="30" height="20" as="geometry" />
        </mxCell>
        <mxCell id="vZPYhqz5uQ9WQLGZUq8a-149" style="edgeStyle=orthogonalEdgeStyle;rounded=0;orthogonalLoop=1;jettySize=auto;html=1;entryX=1;entryY=0.5;entryDx=0;entryDy=0;dashed=1;dashPattern=8 8;" parent="1" source="vZPYhqz5uQ9WQLGZUq8a-146" target="vZPYhqz5uQ9WQLGZUq8a-129" edge="1">
          <mxGeometry relative="1" as="geometry" />
        </mxCell>
        <mxCell id="vZPYhqz5uQ9WQLGZUq8a-146" value="Excel-файлы" style="shape=process;whiteSpace=wrap;align=center;verticalAlign=middle;size=0.0475;fontStyle=1;strokeWidth=3;fillColor=#FFCCCC" parent="1" vertex="1">
          <mxGeometry x="736" y="125" width="120" height="51" as="geometry" />
        </mxCell>
        <mxCell id="vZPYhqz5uQ9WQLGZUq8a-153" style="edgeStyle=orthogonalEdgeStyle;rounded=0;orthogonalLoop=1;jettySize=auto;html=1;exitX=0;exitY=0.5;exitDx=0;exitDy=0;entryX=0.5;entryY=1;entryDx=0;entryDy=0;dashed=1;dashPattern=8 8;" parent="1" source="vZPYhqz5uQ9WQLGZUq8a-150" target="vZPYhqz5uQ9WQLGZUq8a-120" edge="1">
          <mxGeometry relative="1" as="geometry" />
        </mxCell>
        <mxCell id="vZPYhqz5uQ9WQLGZUq8a-150" value="Excel-файлы" style="shape=process;whiteSpace=wrap;align=center;verticalAlign=middle;size=0.0475;fontStyle=1;strokeWidth=3;fillColor=#FFCCCC" parent="1" vertex="1">
          <mxGeometry x="354" y="125" width="120" height="51" as="geometry" />
        </mxCell>
        <mxCell id="vZPYhqz5uQ9WQLGZUq8a-158" style="edgeStyle=orthogonalEdgeStyle;rounded=0;orthogonalLoop=1;jettySize=auto;html=1;entryX=0.59;entryY=0.98;entryDx=0;entryDy=0;entryPerimeter=0;" parent="1" target="vZPYhqz5uQ9WQLGZUq8a-130" edge="1">
          <mxGeometry relative="1" as="geometry">
            <mxPoint x="616" y="120" as="sourcePoint" />
          </mxGeometry>
        </mxCell>
        <mxCell id="vZPYhqz5uQ9WQLGZUq8a-159" style="edgeStyle=orthogonalEdgeStyle;rounded=0;orthogonalLoop=1;jettySize=auto;html=1;entryX=0.989;entryY=0.593;entryDx=0;entryDy=0;entryPerimeter=0;exitX=0;exitY=0.75;exitDx=0;exitDy=0;" parent="1" source="vZPYhqz5uQ9WQLGZUq8a-128" target="vZPYhqz5uQ9WQLGZUq8a-130" edge="1">
          <mxGeometry relative="1" as="geometry">
            <mxPoint x="830" y="-13" as="sourcePoint" />
          </mxGeometry>
        </mxCell>
        <mxCell id="vZPYhqz5uQ9WQLGZUq8a-161" style="edgeStyle=orthogonalEdgeStyle;rounded=0;orthogonalLoop=1;jettySize=auto;html=1;entryX=1;entryY=0.75;entryDx=0;entryDy=0;exitX=-0.014;exitY=0.591;exitDx=0;exitDy=0;exitPerimeter=0;" parent="1" source="vZPYhqz5uQ9WQLGZUq8a-130" target="vZPYhqz5uQ9WQLGZUq8a-120" edge="1">
          <mxGeometry relative="1" as="geometry">
            <mxPoint x="591" y="40" as="sourcePoint" />
            <mxPoint x="430" y="42" as="targetPoint" />
          </mxGeometry>
        </mxCell>
        <mxCell id="vZPYhqz5uQ9WQLGZUq8a-162" value="Вручную считают ставки" style="text;spacingTop=-5;align=center;rotation=270;whiteSpace=wrap;fontSize=11;" parent="1" vertex="1">
          <mxGeometry x="816" y="46" width="85" height="34" as="geometry" />
        </mxCell>
        <mxCell id="vZPYhqz5uQ9WQLGZUq8a-163" value="СМС-шлюз телеком оператора" style="shape=process;whiteSpace=wrap;align=center;verticalAlign=middle;size=0.0475;fontStyle=1;strokeWidth=3;fillColor=#f0a30a;fontColor=#000000;strokeColor=#BD7000;" parent="1" vertex="1">
          <mxGeometry x="668.25" y="371.68" width="120" height="51" as="geometry" />
        </mxCell>
        <mxCell id="vZPYhqz5uQ9WQLGZUq8a-164" value="Телеком оператор" style="shape=process;whiteSpace=wrap;align=center;verticalAlign=middle;size=0.0475;fontStyle=1;strokeWidth=3;fillColor=#76608a;fontColor=#ffffff;strokeColor=#432D57;" parent="1" vertex="1">
          <mxGeometry x="668.25" y="246.68" width="120" height="51" as="geometry" />
        </mxCell>
        <mxCell id="vZPYhqz5uQ9WQLGZUq8a-168" value="Ставка определена" style="text;spacingTop=-5;align=center;rotation=270;whiteSpace=wrap;fontSize=11;" parent="1" vertex="1">
          <mxGeometry x="655" y="489.05" width="129.25" height="27.62" as="geometry" />
        </mxCell>
        <mxCell id="vZPYhqz5uQ9WQLGZUq8a-171" value="СМС" style="text;spacingTop=-5;align=center;rotation=270;whiteSpace=wrap;fontSize=11;" parent="1" vertex="1">
          <mxGeometry x="689.22" y="317.68" width="60.81" height="27.62" as="geometry" />
        </mxCell>
        <mxCell id="vZPYhqz5uQ9WQLGZUq8a-174" style="edgeStyle=orthogonalEdgeStyle;rounded=0;orthogonalLoop=1;jettySize=auto;html=1;entryX=0.814;entryY=-0.049;entryDx=0;entryDy=0;entryPerimeter=0;" parent="1" target="vZPYhqz5uQ9WQLGZUq8a-72" edge="1">
          <mxGeometry relative="1" as="geometry">
            <mxPoint x="901" as="sourcePoint" />
          </mxGeometry>
        </mxCell>
        <mxCell id="vZPYhqz5uQ9WQLGZUq8a-175" value="Анализ текущего уровня кредитного риска" style="text;spacingTop=-5;align=center;rotation=270;" parent="1" vertex="1">
          <mxGeometry x="871" y="339" width="30" height="20" as="geometry" />
        </mxCell>
        <mxCell id="vZPYhqz5uQ9WQLGZUq8a-176" value="" style="edgeStyle=elbowEdgeStyle;elbow=horizontal;strokeColor=#990000;strokeWidth=2;rounded=0;entryX=0.5;entryY=1;entryDx=0;entryDy=0;exitX=0.744;exitY=-0.033;exitDx=0;exitDy=0;exitPerimeter=0;" parent="1" target="vZPYhqz5uQ9WQLGZUq8a-163" edge="1">
          <mxGeometry width="100" height="100" relative="1" as="geometry">
            <mxPoint x="727.3860000000004" y="579.997" as="sourcePoint" />
            <mxPoint x="788.25" y="501.68" as="targetPoint" />
            <Array as="points">
              <mxPoint x="728.25" y="501.68" />
            </Array>
          </mxGeometry>
        </mxCell>
        <mxCell id="vZPYhqz5uQ9WQLGZUq8a-177" value="" style="edgeStyle=elbowEdgeStyle;elbow=horizontal;strokeColor=#990000;strokeWidth=2;rounded=0;entryX=0.5;entryY=1;entryDx=0;entryDy=0;exitX=0.5;exitY=0;exitDx=0;exitDy=0;dashed=1;dashPattern=8 8;" parent="1" source="vZPYhqz5uQ9WQLGZUq8a-163" target="vZPYhqz5uQ9WQLGZUq8a-164" edge="1">
          <mxGeometry width="100" height="100" relative="1" as="geometry">
            <mxPoint x="808.25" y="420.68" as="sourcePoint" />
            <mxPoint x="808.25" y="351.68" as="targetPoint" />
            <Array as="points">
              <mxPoint x="728.25" y="341.68" />
            </Array>
          </mxGeometry>
        </mxCell>
        <mxCell id="vZPYhqz5uQ9WQLGZUq8a-178" value="" style="edgeStyle=elbowEdgeStyle;elbow=vertical;strokeColor=#990000;strokeWidth=2;rounded=0;exitX=0.86;exitY=-0.059;exitDx=0;exitDy=0;exitPerimeter=0;entryX=0.25;entryY=1;entryDx=0;entryDy=0;dashed=1;dashPattern=8 8;" parent="1" source="vZPYhqz5uQ9WQLGZUq8a-72" target="vZPYhqz5uQ9WQLGZUq8a-140" edge="1">
          <mxGeometry width="100" height="100" relative="1" as="geometry">
            <mxPoint x="970" y="509" as="sourcePoint" />
            <mxPoint x="989" y="380" as="targetPoint" />
            <Array as="points" />
          </mxGeometry>
        </mxCell>
        <mxCell id="vZPYhqz5uQ9WQLGZUq8a-180" value="Изучают кредитные заявки" style="text;spacingTop=-5;align=center;rotation=270;whiteSpace=wrap;fontSize=11;" parent="1" vertex="1">
          <mxGeometry x="886" y="101.25" width="155.5" height="19.75" as="geometry" />
        </mxCell>
        <mxCell id="vZPYhqz5uQ9WQLGZUq8a-185" value="Бюро кредитных историй" style="shape=process;whiteSpace=wrap;align=center;verticalAlign=middle;size=0.0475;fontStyle=1;strokeWidth=3;fillColor=#76608a;fontColor=#ffffff;strokeColor=#432D57;" parent="1" vertex="1">
          <mxGeometry x="1175" y="381.7" width="120" height="51" as="geometry" />
        </mxCell>
        <mxCell id="vZPYhqz5uQ9WQLGZUq8a-186" value="" style="edgeStyle=elbowEdgeStyle;elbow=horizontal;strokeColor=#990000;strokeWidth=2;rounded=0;exitX=1;exitY=0.5;exitDx=0;exitDy=0;entryX=0;entryY=0.5;entryDx=0;entryDy=0;" parent="1" source="vZPYhqz5uQ9WQLGZUq8a-141" target="vZPYhqz5uQ9WQLGZUq8a-185" edge="1">
          <mxGeometry width="100" height="100" relative="1" as="geometry">
            <mxPoint x="1420.28" y="317.68" as="sourcePoint" />
            <mxPoint x="1150" y="470" as="targetPoint" />
            <Array as="points">
              <mxPoint x="1160" y="407" />
            </Array>
          </mxGeometry>
        </mxCell>
        <mxCell id="vZPYhqz5uQ9WQLGZUq8a-187" value="" style="edgeStyle=elbowEdgeStyle;elbow=horizontal;strokeColor=#990000;strokeWidth=2;rounded=0;dashed=1;dashPattern=8 8;" parent="1" edge="1">
          <mxGeometry width="100" height="100" relative="1" as="geometry">
            <mxPoint x="1059" y="434" as="sourcePoint" />
            <mxPoint x="1058.5" y="580" as="targetPoint" />
            <Array as="points">
              <mxPoint x="1058.5" y="501" />
            </Array>
          </mxGeometry>
        </mxCell>
        <mxCell id="vZPYhqz5uQ9WQLGZUq8a-188" value="" style="edgeStyle=elbowEdgeStyle;elbow=horizontal;strokeColor=#990000;strokeWidth=2;rounded=0;" parent="1" edge="1">
          <mxGeometry width="100" height="100" relative="1" as="geometry">
            <mxPoint x="1030" y="276" as="sourcePoint" />
            <mxPoint x="1030" y="382" as="targetPoint" />
            <Array as="points">
              <mxPoint x="1030" y="320" />
            </Array>
          </mxGeometry>
        </mxCell>
        <mxCell id="vZPYhqz5uQ9WQLGZUq8a-194" value="" style="edgeStyle=elbowEdgeStyle;elbow=horizontal;strokeColor=#990000;strokeWidth=2;rounded=0;exitX=0.5;exitY=0;exitDx=0;exitDy=0;entryX=0.641;entryY=0.969;entryDx=0;entryDy=0;entryPerimeter=0;dashed=1;dashPattern=8 8;" parent="1" source="vZPYhqz5uQ9WQLGZUq8a-141" target="vZPYhqz5uQ9WQLGZUq8a-140" edge="1">
          <mxGeometry width="100" height="100" relative="1" as="geometry">
            <mxPoint x="1270" y="300" as="sourcePoint" />
            <mxPoint x="1380" y="300" as="targetPoint" />
            <Array as="points">
              <mxPoint x="1065" y="320" />
            </Array>
          </mxGeometry>
        </mxCell>
        <mxCell id="vZPYhqz5uQ9WQLGZUq8a-195" value="" style="edgeStyle=elbowEdgeStyle;elbow=vertical;strokeColor=#990000;strokeWidth=2;rounded=0;exitX=0.142;exitY=0.979;exitDx=0;exitDy=0;exitPerimeter=0;entryX=0.848;entryY=0;entryDx=0;entryDy=0;entryPerimeter=0;dashed=1;dashPattern=8 8;" parent="1" source="vZPYhqz5uQ9WQLGZUq8a-140" target="vZPYhqz5uQ9WQLGZUq8a-72" edge="1">
          <mxGeometry width="100" height="100" relative="1" as="geometry">
            <mxPoint x="1340" y="561" as="sourcePoint" />
            <mxPoint x="1340" y="260" as="targetPoint" />
            <Array as="points" />
          </mxGeometry>
        </mxCell>
        <mxCell id="vZPYhqz5uQ9WQLGZUq8a-181" value="Выгрузка, загрузка заявок" style="text;spacingTop=-5;align=center;rotation=270;whiteSpace=wrap;fontSize=11;" parent="1" vertex="1">
          <mxGeometry x="893.5" y="394.5" width="160.75" height="20" as="geometry" />
        </mxCell>
      </root>
    </mxGraphModel>
  </diagram>
</mxfile>
